<svg aria-hidden="true" style="position: absolute; width: 0; height: 0; overflow: hidden;" version="1.1" xmlns="http://www.w3.org/2000/svg" xmlns:xlink="http://www.w3.org/1999/xlink">
<defs>
<symbol id="icon-arrow-right" viewBox="0 0 32 32">
<path d="M28.943 16.943l-9.333 9.333c-0.24 0.234-0.569 0.379-0.931 0.379-0.736 0-1.333-0.597-1.333-1.333 0-0.362 0.145-0.691 0.379-0.931l-0 0 7.056-7.058h-20.781c-0.736 0-1.333-0.597-1.333-1.334s0.597-1.334 1.333-1.334v0h20.781l-7.057-7.057c-0.234-0.24-0.379-0.569-0.379-0.931 0-0.736 0.597-1.333 1.333-1.333 0.362 0 0.691 0.144 0.931 0.379l-0-0 9.333 9.333c0.241 0.241 0.39 0.574 0.39 0.943s-0.149 0.701-0.39 0.943v0z"></path>
</symbol>
<symbol id="icon-arrow" viewBox="0 0 32 32">
<path d="M23.473 14.214c0.986 0.986 0.986 2.491 0 3.479l-0.050 0.043-11.457 11.507c-0.449 0.434-1.061 0.702-1.736 0.702s-1.287-0.268-1.736-0.703l0.001 0.001c-0.437-0.447-0.707-1.060-0.707-1.736s0.27-1.288 0.708-1.736l-0 0 9.859-9.816-9.766-9.771c-0.434-0.441-0.702-1.046-0.702-1.715s0.268-1.274 0.702-1.715l-0 0c0.441-0.434 1.046-0.702 1.714-0.702s1.274 0.268 1.715 0.702l11.456 11.458z"></path>
</symbol>
<symbol id="icon-close" viewBox="0 0 32 32">
<path d="M16 13.738l-11.314-11.314-2.262 2.262 11.314 11.314-11.314 11.314 2.262 2.262 11.314-11.314 11.314 11.314 2.262-2.262-11.314-11.314 11.314-11.314-2.262-2.262-11.314 11.314z"></path>
</symbol>
<symbol id="icon-burger" viewBox="0 0 32 32">
<path d="M30.222 8.889h-28.444c-0.982 0-1.778-0.796-1.778-1.778s0.796-1.778 1.778-1.778v0h28.444c0.982 0 1.778 0.796 1.778 1.778s-0.796 1.778-1.778 1.778v0zM30.222 17.778h-28.444c-0.982 0-1.778-0.796-1.778-1.778s0.796-1.778 1.778-1.778v0h28.444c0.982 0 1.778 0.796 1.778 1.778s-0.796 1.778-1.778 1.778v0zM30.222 26.667h-28.444c-0.982 0-1.778-0.796-1.778-1.778s0.796-1.778 1.778-1.778v0h28.444c0.982 0 1.778 0.796 1.778 1.778s-0.796 1.778-1.778 1.778v0z"></path>
</symbol>
<symbol id="icon-facebook" viewBox="0 0 32 32">
<path d="M16.64 12.8v-1.92c0-0.832 0.192-1.28 1.536-1.28h1.664v-3.2h-2.56c-3.2 0-4.48 2.112-4.48 4.48v1.92h-2.56v3.2h2.56v9.6h3.84v-9.6h2.816l0.384-3.2h-3.2z"></path>
</symbol>
<symbol id="icon-telegram" viewBox="0 0 32 32">
<path d="M29.919 6.163l-4.225 19.925c-0.319 1.406-1.15 1.756-2.331 1.094l-6.438-4.744-3.106 2.988c-0.344 0.344-0.631 0.631-1.294 0.631l0.463-6.556 11.931-10.781c0.519-0.462-0.113-0.719-0.806-0.256l-14.75 9.288-6.35-1.988c-1.381-0.431-1.406-1.381 0.288-2.044l24.837-9.569c1.15-0.431 2.156 0.256 1.781 2.013z"></path>
</symbol>
<symbol id="icon-github" viewBox="0 0 32 32">
<path d="M15.999 1.333c-8.098 0-14.666 6.567-14.666 14.667 0 6.48 4.203 11.977 10.031 13.916 0.733 0.136 1-0.317 1-0.707 0-0.347-0.012-1.269-0.019-2.493-4.080 0.885-4.941-1.967-4.941-1.967-0.667-1.693-1.628-2.147-1.628-2.147-1.332-0.908 0.1-0.891 0.1-0.891 1.473 0.104 2.247 1.512 2.247 1.512 1.308 2.24 3.433 1.593 4.269 1.219 0.133-0.947 0.512-1.593 0.931-1.96-3.256-0.371-6.68-1.629-6.68-7.249 0-1.6 0.571-2.911 1.509-3.936-0.152-0.371-0.655-1.863 0.144-3.88 0 0 1.231-0.396 4.033 1.503 1.1-0.311 2.364-0.491 3.67-0.493h0.001c1.307 0.001 2.571 0.181 3.77 0.517l-0.098-0.024c2.8-1.899 4.029-1.504 4.029-1.504 0.8 2.019 0.297 3.511 0.147 3.881 0.94 1.025 1.507 2.335 1.507 3.936 0 5.635-3.429 6.875-6.696 7.237 0.527 0.453 0.996 1.347 0.996 2.716 0 1.96-0.019 3.543-0.019 4.023 0 0.393 0.265 0.849 1.008 0.707 5.824-1.944 10.023-7.437 10.023-13.916 0-8.1-6.568-14.667-14.668-14.667z"></path>
</symbol>
<symbol id="icon-comma" viewBox="0 0 43 32">
<path d="M32.014 0c1.929 0 3.75.52 5.464 1.561s3.107 2.537 4.179 4.488C42.686 8 43.2 10.298 43.2 12.943s-.643 5.225-1.929 7.74c-.429.911-1.2 2.081-2.314 3.512a63.368 63.368 0 0 1-3.214 3.707L31.693 32 28.8 27.187a22.03 22.03 0 0 0 5.336-4.683c1.543-1.821 2.314-3.491 2.314-5.008 0-.78-.171-1.409-.514-1.886a8.359 8.359 0 0 1-5.014 1.626c-1.329 0-2.593-.412-3.793-1.236a8.555 8.555 0 0 1-2.957-3.122c-.771-1.258-1.157-2.558-1.157-3.902 0-1.518.45-2.97 1.35-4.358a10.222 10.222 0 0 1 3.407-3.382C29.143.412 30.558 0 32.015 0zM8.936 0c1.929 0 3.75.52 5.464 1.561s3.107 2.537 4.179 4.488c1.029 1.951 1.543 4.249 1.543 6.894 0 1.864-.236 3.534-.707 5.008-.471 1.518-1.286 3.1-2.443 4.748-1.114 1.561-2.164 2.862-3.15 3.902-.986 1.084-2.7 2.884-5.143 5.398l-2.893-4.813a22.03 22.03 0 0 0 5.336-4.683c1.543-1.821 2.314-3.491 2.314-5.008 0-.78-.171-1.409-.514-1.886a8.359 8.359 0 0 1-5.014 1.626c-1.329 0-2.593-.412-3.793-1.236a8.555 8.555 0 0 1-2.957-3.122C.387 11.619.001 10.319.001 8.975c0-1.518.429-2.97 1.286-4.358S3.28 2.102 4.694 1.235C6.065.411 7.48-.001 8.937-.001z"/>
</symbol>
<symbol id="icon-home" viewBox="0 0 35 32">
<path d="M34.253 15.613a1.576 1.576 0 0 0-.129-2.255L19.352.432c-.671-.586-1.745-.574-2.402.028L2.128 14.047a1.567 1.567 0 0 0-.071 2.252l.372.387c.617.642 1.613.718 2.224.17l1.108-.992v14.523c0 .891.722 1.613 1.612 1.613h5.778c.89 0 1.612-.721 1.612-1.613v-10.16h7.37v10.16c-.013.89.624 1.612 1.515 1.612h6.123c.89 0 1.613-.722 1.613-1.613V16.068l.683.6c.377.332 1.168.066 1.767-.594l.42-.462z"/>
</symbol>
</defs>
</svg>
